<?xml version="1.0" encoding="UTF-8"?>
<!DOCTYPE svg PUBLIC "-//W3C//DTD SVG 1.1//EN" "http://www.w3.org/Graphics/SVG/1.1/DTD/svg11.dtd">
<svg xmlns="http://www.w3.org/2000/svg" version="1.1" width="3593px" height="477px" style="shape-rendering:geometricPrecision; text-rendering:geometricPrecision; image-rendering:optimizeQuality; fill-rule:evenodd; clip-rule:evenodd" xmlns:xlink="http://www.w3.org/1999/xlink">
<g><path style="opacity:0.991" fill="#1c1e1b" d="M 2952.5,-0.5 C 2980.83,-0.5 3009.17,-0.5 3037.5,-0.5C 3037.33,59.1676 3037.5,118.834 3038,178.5C 3063.74,147.514 3096.9,132.181 3137.5,132.5C 3201.92,134.769 3246.09,165.769 3270,225.5C 3283.07,264.369 3286.07,304.036 3279,344.5C 3271.83,388.046 3251,423.213 3216.5,450C 3178.94,474.093 3138.6,480.093 3095.5,468C 3072.24,460.289 3053.08,446.789 3038,427.5C 3037.5,440.829 3037.33,454.163 3037.5,467.5C 3009.17,467.5 2980.83,467.5 2952.5,467.5C 2952.5,311.5 2952.5,155.5 2952.5,-0.5 Z M 3103.5,203.5 C 3147.57,200.773 3175.73,220.44 3188,262.5C 3194.42,291.009 3193.76,319.342 3186,347.5C 3170.01,390.753 3139.17,408.586 3093.5,401C 3068.64,394.493 3051.47,379.327 3042,355.5C 3030.67,321.833 3030.67,288.167 3042,254.5C 3053.36,226.298 3073.86,209.298 3103.5,203.5 Z"/></g>
<g><path style="opacity:0.998" fill="#1c1e1b" d="M 733.5,0.5 C 762.5,0.5 791.5,0.5 820.5,0.5C 820.5,156.167 820.5,311.833 820.5,467.5C 791.5,467.5 762.5,467.5 733.5,467.5C 733.5,311.833 733.5,156.167 733.5,0.5 Z"/></g>
<g><path style="opacity:0.989" fill="#1c1e1b" d="M -0.5,4.5 C 28.8333,4.5 58.1667,4.5 87.5,4.5C 87.5,158.167 87.5,311.833 87.5,465.5C 58.1667,465.5 28.8333,465.5 -0.5,465.5C -0.5,311.833 -0.5,158.167 -0.5,4.5 Z"/></g>
<g><path style="opacity:0.989" fill="#1c1e1b" d="M 170.5,4.5 C 199.833,4.5 229.167,4.5 258.5,4.5C 258.5,158.167 258.5,311.833 258.5,465.5C 229.167,465.5 199.833,465.5 170.5,465.5C 170.5,311.833 170.5,158.167 170.5,4.5 Z"/></g>
<g><path style="opacity:0.986" fill="#1c1e1b" d="M 341.5,6.5 C 453.167,6.5 564.833,6.5 676.5,6.5C 676.5,32.1667 676.5,57.8333 676.5,83.5C 594.167,83.5 511.833,83.5 429.5,83.5C 429.5,119.833 429.5,156.167 429.5,192.5C 484.5,192.5 539.5,192.5 594.5,192.5C 594.5,217.833 594.5,243.167 594.5,268.5C 539.5,268.5 484.5,268.5 429.5,268.5C 429.5,309.167 429.5,349.833 429.5,390.5C 514.5,390.5 599.5,390.5 684.5,390.5C 684.5,416.167 684.5,441.833 684.5,467.5C 570.167,467.5 455.833,467.5 341.5,467.5C 341.5,313.833 341.5,160.167 341.5,6.5 Z"/></g>
<g><path style="opacity:0.988" fill="#1c1e1b" d="M 2260.5,6.5 C 2290.17,6.5 2319.83,6.5 2349.5,6.5C 2349.5,134.5 2349.5,262.5 2349.5,390.5C 2418.83,390.5 2488.17,390.5 2557.5,390.5C 2557.5,416.167 2557.5,441.833 2557.5,467.5C 2458.5,467.5 2359.5,467.5 2260.5,467.5C 2260.5,313.833 2260.5,160.167 2260.5,6.5 Z"/></g>
<g><path style="opacity:0.986" fill="#1c1e1b" d="M 3592.5,356.5 C 3592.5,364.5 3592.5,372.5 3592.5,380.5C 3584.69,420.231 3562.02,448.064 3524.5,464C 3508.94,470.388 3492.94,474.555 3476.5,476.5C 3463.83,476.5 3451.17,476.5 3438.5,476.5C 3390.34,472.502 3349.84,452.836 3317,417.5C 3314.31,414.308 3311.81,410.975 3309.5,407.5C 3331.89,393.551 3354.72,380.217 3378,367.5C 3403.39,399.642 3436.56,412.809 3477.5,407C 3496.23,404.268 3506.9,393.601 3509.5,375C 3507.5,364.66 3501.5,357.66 3491.5,354C 3482.69,350.73 3473.69,348.063 3464.5,346C 3445.83,342 3427.17,338 3408.5,334C 3384.49,328.656 3362.49,318.99 3342.5,305C 3315.61,281.337 3306.11,251.837 3314,216.5C 3322.24,187.602 3339.4,165.769 3365.5,151C 3403.31,131.781 3442.97,126.781 3484.5,136C 3528.25,145.459 3563.25,168.126 3589.5,204C 3567.85,216.495 3545.85,228.495 3523.5,240C 3522.5,240.667 3521.5,240.667 3520.5,240C 3495.02,206.505 3461.68,194.172 3420.5,203C 3402.95,207.525 3394.12,218.691 3394,236.5C 3396.8,245.965 3402.96,252.132 3412.5,255C 3419.37,257.466 3426.37,259.466 3433.5,261C 3456.97,265.361 3480.3,270.361 3503.5,276C 3527.84,282.002 3549.5,293.002 3568.5,309C 3581.74,322.225 3589.74,338.059 3592.5,356.5 Z"/></g>
<g><path style="opacity:0.988" fill="#1c1e1b" d="M 2052.5,132.5 C 2119.25,129.432 2159.75,160.432 2174,225.5C 2176.43,238.386 2177.77,251.386 2178,264.5C 2178.5,332.166 2178.67,399.833 2178.5,467.5C 2149.5,467.5 2120.5,467.5 2091.5,467.5C 2091.67,402.166 2091.5,336.832 2091,271.5C 2091.09,255.874 2087.43,241.208 2080,227.5C 2073.14,217.98 2063.97,211.813 2052.5,209C 2012.08,202.079 1985.92,218.246 1974,257.5C 1971.36,267.675 1969.69,278.008 1969,288.5C 1968.5,348.166 1968.33,407.832 1968.5,467.5C 1939.5,467.5 1910.5,467.5 1881.5,467.5C 1881.5,358.167 1881.5,248.833 1881.5,139.5C 1910.5,139.5 1939.5,139.5 1968.5,139.5C 1968.33,156.17 1968.5,172.837 1969,189.5C 1986.44,155.223 2014.27,136.223 2052.5,132.5 Z"/></g>
<g><path style="opacity:0.986" fill="#1c1e1b" d="M 1015.5,133.5 C 1059.42,129.559 1099.09,140.392 1134.5,166C 1167.71,195.586 1186.21,232.753 1190,277.5C 1191.29,295.809 1191.79,314.142 1191.5,332.5C 1112.5,332.5 1033.5,332.5 954.5,332.5C 959.979,374.479 983.645,398.312 1025.5,404C 1049.58,406.789 1071.58,401.455 1091.5,388C 1102.58,379.103 1110.24,367.937 1114.5,354.5C 1140.54,362.235 1166.21,371.069 1191.5,381C 1166.33,434.788 1124,464.788 1064.5,471C 1026.89,475.874 990.562,471.207 955.5,457C 906.988,432.771 878.821,393.605 871,339.5C 863.861,294.93 870.528,252.597 891,212.5C 919.319,165.58 960.819,139.247 1015.5,133.5 Z M 1022.5,200.5 C 1072.28,198.288 1099.28,221.955 1103.5,271.5C 1053.17,271.667 1002.83,271.5 952.5,271C 959.309,230.744 982.642,207.244 1022.5,200.5 Z"/></g>
<g><path style="opacity:0.986" fill="#1c1e1b" d="M 1659.5,133.5 C 1700.94,129.861 1738.94,139.361 1773.5,162C 1801.6,184.132 1820.1,212.632 1829,247.5C 1834.93,275.52 1837.1,303.853 1835.5,332.5C 1756.5,332.5 1677.5,332.5 1598.5,332.5C 1603.96,374.458 1627.62,398.291 1669.5,404C 1693.02,406.632 1714.69,401.632 1734.5,389C 1745.46,379.916 1753.63,368.749 1759,355.5C 1759.72,354.941 1760.56,354.608 1761.5,354.5C 1784.12,362.43 1806.79,370.264 1829.5,378C 1831.85,378.712 1833.85,379.879 1835.5,381.5C 1817.96,421.932 1788.29,449.099 1746.5,463C 1700.61,476.271 1654.94,475.604 1609.5,461C 1551.96,436.176 1520.13,392.343 1514,329.5C 1507.99,280.189 1518.99,235.189 1547,194.5C 1575.96,158.602 1613.46,138.268 1659.5,133.5 Z M 1667.5,200.5 C 1716.79,198.791 1743.45,222.457 1747.5,271.5C 1697.5,271.5 1647.5,271.5 1597.5,271.5C 1603.51,230.493 1626.84,206.826 1667.5,200.5 Z"/></g>
<g><path style="opacity:0.987" fill="#1c1e1b" d="M 2729.5,133.5 C 2762.29,131.078 2794.29,134.912 2825.5,145C 2860.51,159.49 2882.01,185.323 2890,222.5C 2891.43,229.775 2892.43,237.108 2893,244.5C 2893.5,318.833 2893.67,393.166 2893.5,467.5C 2865.83,467.5 2838.17,467.5 2810.5,467.5C 2810.67,453.163 2810.5,438.829 2810,424.5C 2792.63,449.843 2768.79,465.676 2738.5,472C 2705.22,478.706 2672.89,475.706 2641.5,463C 2603.35,443.207 2586.18,411.707 2590,368.5C 2592.18,338.289 2606.34,315.789 2632.5,301C 2653.44,290.354 2675.44,282.687 2698.5,278C 2727.53,272.128 2756.53,266.128 2785.5,260C 2794.2,258.398 2801.7,254.565 2808,248.5C 2813.04,231.72 2807.87,218.887 2792.5,210C 2774.91,202.509 2756.58,199.842 2737.5,202C 2703.49,205.176 2685.16,223.676 2682.5,257.5C 2653.83,257.5 2625.17,257.5 2596.5,257.5C 2599.81,202.372 2627.14,164.872 2678.5,145C 2695.19,139.165 2712.19,135.332 2729.5,133.5 Z M 2809.5,305.5 C 2810.66,317.326 2810.83,329.326 2810,341.5C 2805.18,376.341 2786.02,398.841 2752.5,409C 2734.36,413.98 2716.36,413.647 2698.5,408C 2678.23,396.806 2672.4,380.306 2681,358.5C 2684.79,352.377 2689.62,347.21 2695.5,343C 2703.48,338.509 2711.81,334.842 2720.5,332C 2741.46,326.509 2762.46,321.176 2783.5,316C 2792.6,313.276 2801.26,309.776 2809.5,305.5 Z"/></g>
<g><path style="opacity:0.987" fill="#1c1e1b" d="M 1191.5,139.5 C 1221.51,139.167 1251.51,139.5 1281.5,140.5C 1307.17,215.176 1332.84,289.843 1358.5,364.5C 1382.43,289.875 1406.26,215.208 1430,140.5C 1459.09,139.338 1488.26,139.172 1517.5,140C 1477.7,249.077 1437.7,358.077 1397.5,467C 1370.59,467.828 1343.76,467.661 1317,466.5C 1275.06,357.515 1233.23,248.515 1191.5,139.5 Z"/></g>
</svg>
