<svg xmlns="http://www.w3.org/2000/svg" xmlns:xlink="http://www.w3.org/1999/xlink" width="500" zoomAndPan="magnify" viewBox="0 0 375 374.999991" height="500" preserveAspectRatio="xMidYMid meet" version="1.0"><defs><clipPath id="b165d3a2e5"><path d="M 70.546875 70.546875 L 304.546875 70.546875 L 304.546875 304.546875 L 70.546875 304.546875 Z M 70.546875 70.546875 " clip-rule="nonzero"/></clipPath></defs><g clip-path="url(#b165d3a2e5)"><path fill="#004aad" d="M 187.5 70.546875 C 122.96875 70.546875 70.546875 122.96875 70.546875 187.5 C 70.546875 252.03125 122.96875 304.453125 187.5 304.453125 C 252.03125 304.453125 304.453125 252.03125 304.453125 187.5 C 304.453125 122.96875 252.03125 70.546875 187.5 70.546875 Z M 187.5 80.714844 C 246.535156 80.714844 294.28125 128.464844 294.28125 187.5 C 294.28125 194.21875 293.636719 200.78125 292.457031 207.152344 C 290.585938 206.242188 287.621094 204.355469 284.09375 201.195312 C 278.980469 196.617188 272.707031 190.191406 265.203125 183.664062 C 250.199219 170.617188 229.875 156.988281 202.753906 156.988281 C 175.632812 156.988281 156.449219 170.730469 139.074219 185.53125 C 138.957031 185.632812 138.84375 185.730469 138.726562 185.832031 C 128.726562 180.773438 118.003906 177.328125 106.140625 177.328125 C 96.277344 177.328125 87.070312 180.808594 80.804688 183.863281 C 82.722656 126.519531 129.683594 80.714844 187.5 80.714844 Z M 202.753906 167.160156 C 226.484375 167.160156 244.296875 178.957031 258.53125 191.332031 C 265.644531 197.519531 271.765625 203.804688 277.300781 208.761719 C 277.960938 209.355469 278.589844 209.882812 279.238281 210.449219 C 274.382812 212.117188 269.871094 214.425781 265.519531 216.886719 C 265.226562 216.6875 264.988281 216.519531 264.6875 216.320312 C 254.890625 209.789062 242.101562 202.753906 223.09375 202.753906 C 207.769531 202.753906 194.71875 208.648438 182.664062 216.03125 C 178.367188 212.960938 174.023438 209.691406 169.59375 206.328125 C 162.742188 201.132812 155.667969 195.8125 148.21875 191.164062 C 164.285156 177.738281 180.21875 167.160156 202.753906 167.160156 Z M 106.140625 187.5 C 114.5625 187.5 122.53125 189.695312 130.265625 193.148438 C 116.730469 204.917969 103.25 216.242188 86.574219 222.417969 C 83.609375 213.828125 81.714844 204.746094 81.035156 195.316406 C 85.804688 192.683594 96.433594 187.5 106.140625 187.5 Z M 139.996094 198.207031 C 147.914062 202.855469 155.664062 208.523438 163.457031 214.433594 C 166.792969 216.964844 170.164062 219.484375 173.535156 221.992188 C 171.292969 223.515625 169.011719 225.015625 166.8125 226.539062 C 162.4375 229.566406 158.128906 232.515625 153.820312 235.238281 C 141.8125 228.386719 129.410156 223.09375 116.308594 223.09375 C 113.152344 223.09375 110.285156 223.238281 107.5625 223.453125 C 119.640625 216.101562 129.976562 206.960938 139.996094 198.207031 Z M 223.09375 212.925781 C 237.683594 212.925781 247.175781 217.371094 255.578125 222.636719 C 245.695312 228.355469 235.886719 233.261719 223.09375 233.261719 C 212.578125 233.261719 202.394531 228.792969 192.066406 222.339844 C 201.925781 216.792969 211.984375 212.925781 223.09375 212.925781 Z M 289.753906 218.355469 C 288.769531 221.625 287.625 224.820312 286.347656 227.949219 C 282.667969 227.371094 279.113281 225.601562 275.332031 223.300781 C 280.082031 220.929688 284.78125 219.050781 289.753906 218.355469 Z M 182.375 228.316406 C 188.789062 232.660156 195.394531 236.433594 202.308594 239.152344 C 195.453125 242.851562 189.019531 247.917969 182.839844 253.277344 C 179.398438 251.164062 175.945312 249.027344 172.453125 246.78125 C 169.480469 244.871094 166.464844 242.976562 163.457031 241.078125 C 166.53125 239.03125 169.605469 236.972656 172.59375 234.902344 C 175.882812 232.621094 179.128906 230.449219 182.375 228.316406 Z M 265.074219 228.914062 C 270.3125 232.507812 275.675781 235.828125 281.90625 237.386719 C 280.570312 239.910156 279.09375 242.34375 277.566406 244.746094 C 277.304688 245.035156 276.175781 246.273438 273.703125 248.46875 C 270.992188 248.332031 263.210938 245.101562 254.339844 241.296875 C 252.027344 240.308594 249.609375 239.308594 247.097656 238.359375 C 252.941406 235.914062 258.246094 232.917969 263.175781 230.015625 C 263.832031 229.632812 264.433594 229.292969 265.074219 228.914062 Z M 116.308594 233.261719 C 124.871094 233.261719 133.921875 236.519531 143.273438 241.289062 C 134.707031 245.632812 125.898438 248.519531 116.308594 248.519531 C 103.316406 248.519531 94.480469 239.839844 94.480469 239.839844 L 94.460938 239.859375 C 93.792969 238.671875 93.167969 237.464844 92.542969 236.253906 C 96.875 234.929688 104.347656 233.261719 116.308594 233.261719 Z M 223.09375 243.433594 C 231.992188 243.433594 241.589844 246.910156 250.324219 250.652344 C 254.992188 252.652344 259.222656 254.761719 263.328125 256.335938 C 253.726562 262.550781 239.886719 268.859375 223.09375 268.859375 C 213.324219 268.859375 202.921875 264.695312 192.148438 258.777344 C 202.863281 250.070312 213.65625 243.433594 223.09375 243.433594 Z M 153.871094 247.15625 C 158.1875 249.738281 162.550781 252.511719 166.949219 255.339844 C 169.554688 257.015625 172.195312 258.671875 174.828125 260.335938 C 167.917969 266.628906 161.402344 272.789062 155.640625 277.21875 C 149.964844 281.585938 145.074219 283.902344 142.074219 284.054688 C 128.546875 277.6875 116.59375 268.609375 106.90625 257.457031 C 109.8125 258.164062 112.910156 258.6875 116.308594 258.6875 C 130.421875 258.6875 142.613281 253.710938 153.871094 247.15625 Z M 183.902344 265.910156 C 196.4375 273.226562 209.382812 279.027344 223.09375 279.027344 C 232.765625 279.027344 241.550781 277.21875 249.28125 274.527344 C 231.839844 286.925781 210.558594 294.28125 187.5 294.28125 C 176.449219 294.28125 165.789062 292.601562 155.769531 289.496094 C 157.792969 288.226562 159.8125 286.84375 161.835938 285.285156 C 168.367188 280.261719 175.082031 273.839844 182.015625 267.539062 C 182.640625 266.972656 183.277344 266.46875 183.902344 265.910156 Z M 183.902344 265.910156 " fill-opacity="1" fill-rule="nonzero"/></g></svg>